<svg xmlns="http://www.w3.org/2000/svg" width="666" height="400" fill="none" viewBox="0 0 666 400"><path fill="#10181F" d="m240.87 390.44-53.836-29.618L174.025 400l66.743-9.535c-.203 0-.304 0 .102-.025"/><path fill="#10181F" d="m240.864 390.44-.099.025c.248 0 .669-.025.099-.025m185.307-19.07 43.337-12.882 16.28-51.857-40.015 2.764zM529.295 39.127l-33.118-21.681-18.536 59.516 36.439 11.056zM305.847 25.231s22.442 6.949 31.292 9.484l31.9 9.535.558-44.25-56.092 11.259zM83.167 190.516l39.381.101 14.023-44.402-35.805-9.585c-3.804 12.197-13.72 41.688-17.599 53.886M9.864 149.258l29.466 30.988 16.965-54.977-36.16-9.686zM633.978 326.69c-.609-15.57-4.894-20.667-13.998-30.227l-47.471 3.195c13.237 8.394 21.352 18.791 23.026 32.738 1.851 15.316-14.632 33.016-30.582 33.016-8.901 0-13.339-7.049-13.339-15.139.254-6.035 2.359-13.871 5.503-19.094h-40.269c-3.144 8.114-5.756 17.269-5.756 25.89 0 29.543 25.891 37.125 50.463 37.125 25.611 0 46.811-4.97 60.149-28.782 6.01-10.752 12.781-26.169 12.274-38.722M133.055 3.999 9.636 4.1 0 34.708l45.24-.05-22.367 71.154 36.186 9.687 25.13-80.867 39.229-.051z"/><path fill="#10181F" d="M146.531 113.554c4.437-.279 8.901-.279 13.338-.279 7.329-.025 18.309.507 18.309 10.701.025 7.05-2.587 15.95-4.666 22.746-3.905 13.871-8.596 27.717-9.383 41.841l40.523-.05c-1.065-22.747 13.034-42.627 13.009-65.12 0-15.164-11.513-21.174-24.851-23.533l3.905-.532c29.035-3.956 45.213-26.702 45.188-55.205-.025-31.596-26.449-40.472-53.379-40.446l-46.532.05c-13.237 41.08-25.79 82.39-38.646 123.647l35.78 9.56zm25.028-80.842 13.085-.026c9.687 0 19.349 2.334 19.374 13.846.025 14.125-10.169 37.936-26.905 37.936l-21.453.025zm84.629 156.308 20.87-39.508 49.956-.051-1.522 39.737 39.229-.026 3.119-135.286-33.701-10.219c-3.068 25.384-4.793 51.046-4.793 76.506h-.253l-37.657.025c13.541-25.612 26.525-51.426 38.215-77.9l-27.007-8.191-87.257 154.939zm277.704-.254 9.915-30.1-52.567.076 19.475-61.519-36.44-11.056-32.433 102.675zm-243.484 11.842h-51.503l-48.358 151.287 61.544 33.524c36.846-1.395 62.66-28.655 62.66-66.083 0-14.379-8.9-25.612-22.746-29.543 27.209-6.263 44.707-23.786 44.707-52.542-.026-28.021-21.732-36.643-46.304-36.643m-21.175 145.125c-7.328 10.98-15.164 11.767-27.463 11.767h-15.95l17.523-54.368c12.806.507 35.552-2.612 35.552 16.204 0 8.342-4.945 19.601-9.662 26.397m-3.144-69.05h-14.657l15.418-47.851c11.512.533 33.219-3.119 33.219 14.657.279 20.921-13.059 33.194-33.98 33.194M415.154 68.442l-39.077 130.646-34.513 105.971L383 301.864l29.923-94.281h.05l40.421-127.704c-5.629-1.573-28.046-8.774-38.24-11.437m19.359 132.446-9.687 30.556h45.265l-21.175 68.036 39.509-2.713 20.616-65.323h39.204l9.686-30.556zm179.385-1.851c-40.523 0-64.587 28.223-64.587 67.452.05 5.706 5.147 19.755 15.569 24.446l48.739-3.297c-8.292-6.999-22.949-23.507-22.949-32.281 0-12.045 6.72-27.792 20.591-27.792 9.408 0 15.164 2.612 15.164 12.806 0 6.542-3.145 12.552-4.97 18.841h37.657c2.358-5.503 6.009-18.055 6.009-23.812.026-28.528-27.691-36.363-51.223-36.363M167.077 201.7c-18.436 0-21.073 13.617-25.637 28.071-1.522 5.199-4.413 11.538-4.413 16.99 0 10.499 9.307 12.502 17.954 12.502 10.574.076 16.204-3.474 19.957-13.415 2.561-6.796 9.23-25.485 9.23-32.052 0-9.307-9.382-12.096-17.091-12.096m5.148 13.363c0 2.333-2.638 9.941-3.525 12.603l-4.083 12.73c-1.597 4.818-3.525 10.346-9.611 10.346-3.448 0-5.68-2.003-5.68-5.604 0-4.666 3.601-13.313 5.122-18.131 1.522-4.793 3.525-14.353 8.825-16.204 1.192-.405 2.485-.558 3.778-.558 2.409 0 5.3 2.156 5.3 4.742zm41.741 19.094 2.789-9.23h-16.026l4.336-13.77h16.838l2.967-9.23h-29.187l-17.548 56.599h12.273l7.608-24.369z"/></svg>